# xmcd
#
# Track frame offsets: 
#        150
#        17342
#        39412
#        60297
#        82572
#        95610
#        119870
#        149405
#        173710
#
# Disc length: 2568 seconds
#
# Revision: 1
# Processed by: cddbd v1.5.2PL0 Copyright (c) Steve Scherf et al.
# Submitted via: ExactAudioCopy v0.99pb5
#
DISCID=670a0609
DTITLE=The Trio - Vol.2 - Hampton Hawes
DYEAR=1956
DGENRE=Jazz
TTITLE0=You And The Night And The Music
TTITLE1=Stella By Starlight
TTITLE2=Blues For Jacque
TTITLE3=Yesterdays
TTITLE4=Steeplechase
TTITLE5='Round Midnight
TTITLE6=Just Squeeze Me
TTITLE7=Autumn In New York
TTITLE8=Section Blues
EXTD=YEAR: 1956
EXTT0=
EXTT1=
EXTT2=
EXTT3=
EXTT4=
EXTT5=
EXTT6=
EXTT7=
EXTT8=
PLAYORDER=
